<svg xmlns="http://www.w3.org/2000/svg" version="1.1" xmlns:xlink="http://www.w3.org/1999/xlink" xmlns:svgjs="http://svgjs.dev/svgjs" viewBox="0 0 1422 800" opacity="0.51"><defs><linearGradient x1="50%" y1="0%" x2="50%" y2="100%" id="ssscribble-grad"><stop stop-color="hsl(185, 53%, 55%)" stop-opacity="1" offset="0%"></stop><stop stop-color="hsl(0, 73%, 55%)" stop-opacity="1" offset="100%"></stop></linearGradient></defs><g fill="none" stroke-width="1.5" stroke="url(#ssscribble-grad)" stroke-linecap="round"><path d="M1164.61 176.26C1011.86 209.12 957.29 245.18 1021.15 287.9 1166.23 335.84 1306.25 399.33 1371.97 483.38 1339.33 576.59 1221.69 686.79 1071.28 800.17 933.01 889.41 849.39 941.97 828.13 934.23 863.3 870.58 927.71 761.4 993.41 647.69 1056.46 590.95 1092.25 621.46 1100.27 746.89 1091.63 916.85 1064.56 1056.12 1029.11 1086.42 988.6 991.11 949.57 819.15 916.71 676.37 883.84 660.89 858.72 775.27 837.25 940.14 810.73 1062.88 778.02 1068.63 729.71 962.33 664.75 795.92 574.83 647.12 461.14 569.49 344.79 579.15 233.21 654.49 154.97 751.17 133.16 843.72 177.81 892.68 281.87 892.8 398.07 852.08 486.23 780.95 494.78 699.43 404.98 607.63 246.25 525.11 88.49 458.31 11.95 392.46 59.86 342.74 212.61 309.88 378.36 277.01 463.6 262.56 430.15 266.44 300.24 271.26 152.92 294 63.3 328.85 66.16 353.43 162.07 370.45 305.94 360.53 453.46 309.78 557.09 213.65 600.99 78.04 586.61 -61.7 534.94 -176.02 473.38 -219.91 407.15 -176.51 363.1 -57.19 345.26 85.13 342.15 167.36 359.37 142.93 388.06 7.53 421.92 -170.02 457.56 -291.07 490.42 -275.64 523.28 -132.88 551.81 45.75 579.92 153.76 613.2 136.17 655.76 15.61 715.82 -130.26 790.61 -231.61 888.78 -232.67 1005.65 -141.72 1117.86 6.2 1216.7 154.34 1274.15 261.07 1273.33 311.88 1208.66 306.5 1095.36 267.91 985.7 205.17 919.26 149.09 940.49 112.82 1054.2 85.72 1220.22 82.01 1362.81 96.04 1408.94 115.29 1330.36 143.4 1164.61 176.26Q1164.61 176.26 1164.61 176.26" opacity="0.60"></path><path d="M1130.61 281.21C986.2 311.72 923.05 356.81 963.15 416.33 1084.87 477.43 1222.84 554.25 1315.56 642.95 1332.65 726.14 1265.47 806.83 1144.68 867.91 1003.38 894.62 883.73 877.91 807.61 812.43 779.52 722.49 793.4 623.97 830.04 556.64 884.79 559.76 933.17 642.02 965.3 788 991.63 942.09 998.46 1043.92 989.1 1040.42 976.04 934.15 952.9 772.36 922.39 642.37 891.87 623 855.43 718.43 810.95 869.15 762.76 1001.97 700.42 1045.43 621.21 986.11 536.2 851.45 437.57 697.83 335.79 579.31 252.12 523.63 194.44 537.15 182.53 596.46 218.66 684.18 302.13 762.25 411.66 811.93 500.67 835.96 540.48 825.43 501.03 791.37 385.94 740.27 230.61 682.8 97.11 629.37 45.24 572.91 102.2 527.56 246.61 497.05 402.31 466.53 492.91 452.29 482.25 451.2 379.42 447.08 241.61 449.05 132.32 447.27 88.74 428.46 130.78 388.76 236.01 317.71 374.35 221 503.45 99.13 596.39 -28.58 645.3 -127.89 649.85 -177.6 626.27 -153.71 579.74 -66.97 533.65 59.27 499.87 171.57 468.85 208.55 456.48 147.74 461.27 3.16 469.21 -159.33 489.46 -260.96 519.97 -241.64 550.48 -111.67 589.82 56.3 639.42 174.37 692.18 189.68 760.06 105.23 843.96 -26.49 930.62 -150.11 1026.96 -205.01 1120.52 -176.37 1191.13 -77.27 1230.39 57.41 1221.48 187.35 1168.53 292.83 1075.61 353.34 969.04 373.67 895.58 359.62 880.9 329.18 946.85 298.86 1078.51 263.04 1233.68 241.73 1348.29 238.18 1370.73 236.2 1286.31 250.69 1130.61 281.21Q1130.61 281.21 1130.61 281.21" opacity="0.57"></path><path d="M1096.61 466.92C961.06 495.09 891.57 537.89 909.97 592.35 1006 644.78 1132.84 703.86 1239.75 761.2 1296.49 805.13 1280.77 832.17 1204.54 830.43 1087.76 801.8 962.84 740.61 855.93 655.63 776.3 577.51 734.09 520.1 722.26 512.11 736.59 569.11 762.16 684.73 786.65 831.18 816.13 957.69 833.74 1020.64 836.3 988.36 838.14 875.91 825.11 725.81 796.94 608.37 768.77 585.88 726.81 663.22 671.85 797.13 616.17 932.12 547.32 1004.55 469.02 990.49 395.72 898.99 323.76 763.92 266.02 630.6 234.44 528.22 236.21 480.04 278.93 482.45 348.92 527.96 440.45 591.72 527.9 652.54 574.8 710.1 565.26 744.48 487.87 755.51 360.32 753.5 217.45 735.31 110.55 708.63 81.28 677.78 145.06 646.38 280.61 618.21 425.84 590.04 519.53 566.44 528.92 544.18 454.15 517.73 333.88 484.69 218.19 437.88 140.87 378.05 132.22 297.28 187.93 196.31 291.89 92.08 414.8 -12.1 528.71 -94.53 622.43 -133.87 681.29 -119.08 708.69 -46.04 701.19 112.85 641.28 187.83 630.32 -2.24 627.58 -147.02 639.84 -230.09 668.01 -207.64 696.18 -90.21 738.91 65.59 794.77 188.92 850.61 232.09 918.33 185.19 992.85 79.33 1059.97 -46.47 1121.66 -136.83 1164.92 -164.52 1180.93 -127.2 1162.51 -36.4 1105.71 78.62 1028.72 200.53 939.21 302.16 864.57 374.2 838.19 419.35 872.1 438.7 970.07 443.57 1106.4 435.04 1242.7 427.21 1328.35 427.89 1329.83 426.55 1241.84 438.76 1096.61 466.92Q1096.61 466.92 1096.61 466.92" opacity="0.72"></path><path d="M1062.61 607.12C936.42 632.94 862.84 663.78 862.11 696.31 931.73 725.41 1040.31 749.52 1148.87 761.51 1231.58 761.47 1260.23 740.82 1233.15 696.53 1159.37 642.45 1057.41 575.4 950.02 510.32 846.7 472.41 765.1 470.11 708.56 517.7 673.5 611.94 657.64 739.09 652.15 868.38 656.99 959.94 660.91 985.77 657.8 930.76 656.49 816.71 644 679.54 618.18 574.37 592.36 549.51 554.44 609.91 507.05 725.16 461.46 855.21 410.58 946.67 360.99 971.59 321.74 927.34 295.08 828.04 290.34 705.78 307.09 584.56 351.62 492.86 421.1 440.64 494.65 427.87 566 446.61 612.9 481.48 613.09 530.63 561.29 574.4 459.65 605.02 332.16 632.34 208.89 643.37 129.31 639.75 120.07 633.57 188.42 616.79 314.61 590.97 448.99 565.15 543.55 531.52 569.82 489 522.51 443.93 425.52 385.93 315.58 313.87 219.73 238.5 170.99 152.21 177.04 63.27 232.4 -11.39 323.13 -67.19 427.17 -88.27 534.31 -69.89 625.06 -8.8 693.14 85.51 741.79 180.89 769.96 257.04 785.23 282.38 789.39 238.54 791.64 132.4 798.41 -7.6 802.89 -132.82 816.84 -198.47 842.66 -173.65 868.48 -68.49 904.94 73.9 949.16 197.93 991.08 262.93 1035.8 251.81 1076.39 179.18 1105.86 68.82 1120.21 -35.18 1111.35 -102.53 1083.07 -123.25 1029.39 -90.34 956.09 -18.59 885.89 80.32 825.77 184.44 797.3 278.31 818.12 362.4 890.02 425.57 1004.8 470.36 1133.66 503.11 1245.35 525.97 1302.63 545.56 1286.32 561.72 1196.99 581.3 1062.61 607.12Q1062.61 607.12 1062.61 607.12" opacity="0.47"></path><path d="M1029.2 606.35C874.85 638.29 906.27 659.13 1048.19 635.88 1141.93 610.73 1202.05 570.99 1219 520.84 1194.67 477.09 1134.17 438.58 1052.77 418.93 957.93 431.61 866.39 480.01 787.19 565.84 717.56 674.98 664.85 792.78 626.39 892.04 597 946.05 575.13 939.33 555.9 868.25 539.27 756.8 520.27 633.49 496.8 540.26 473.32 513.81 446.5 558.66 418.86 654.28 393.82 773.4 372.99 873.66 361.71 927.96 359.49 927.92 373.54 873.02 406.99 781.8 450.02 670.49 507.86 563.68 571.94 477.16 622.57 414.48 655.25 381.21 655.14 371.13 613.74 381.31 532.57 400.63 421.63 419.78 255.82 451.92 197.23 461.98 349.2 433.75 472.32 410.28 565.4 373.96 604.76 326.15 582.56 278.41 511.79 220.11 417.37 155.1 318.43 95.26 245.15 37.3 211.05 -9.05 216.77 -35.15 261.6 -35.58 332.27 -3.66 421.29 52.08 512.43 131.06 595.18 217.94 671.67 284.71 732.53 318.56 778.83 301.4 816.75 229.9 845.5 116.27 869.43 -11.89 890.72 -116.58 912.14 -166.18 935.61 -139.73 959.08 -46.5 983.49 81.55 1006.47 202.06 1026.81 282.2 1040.76 302.28 1043.51 265.48 1037.89 183.42 1015.69 86.67 975.37 1.97 928.8 -59.41 871.36 -79.97 813.11 -61.89 773.2 -11.48 756.2 60.73 774.92 140.65 833.45 226.97 927.79 305.37 1043.93 371.2 1155.56 432.25 1239.69 480.7 1270.94 518.55 1240.65 553.99 1152.32 582.88 1029.2 606.35Q1029.2 606.35 1029.2 606.35" opacity="0.46"></path><path d="M994.55 465.4C850.86 490.97 834.53 482.08 946.35 450.08 1036.76 428.07 1111.89 401.85 1159.44 378.33 1178.11 369.29 1163.28 375.64 1122.26 405.36 1060.25 460.12 987.73 540.35 914.38 639.91 838.83 741.73 771.71 834 715.54 896.53 663.26 914.91 621.07 882.32 587.55 802 555.77 696.85 529.65 588.03 508.53 506.38 487.41 479.11 472.27 510.04 464.21 585.95 457.9 689.51 461.65 789.06 477.33 861.26 496.89 896.57 529.22 885.63 572.21 835.89 613 756.4 655.19 663.09 689.51 571.1 702.85 484.48 692.62 415.34 651.96 365.31 582.41 330.73 488.34 311.06 382.45 300.29 249.13 296.82 241 280.62 382.55 253.72 494.22 232.59 584.25 202.89 633.62 166.94 633.89 132.77 590.41 96.09 518.42 62.07 429.72 36.23 348.48 21.12 289.3 23.14 255.04 40.61 253.79 79.43 280.64 138.36 330.53 202.65 394.96 270.92 464.04 328.42 538.29 356.16 606.74 348.15 665.65 297.36 722.05 209.67 768.3 98.09 804.96 -13.61 840.16 -97.67 868.18 -132.88 889.3 -105.61 910.43 -23.96 923.67 89.13 928.31 202.43 931.49 290.9 923.68 335.52 903.88 332.62 881.59 285.57 847.93 212.25 806.23 132.43 752.66 27.27 727.37 -17.42 796.76 36.15 877.93 92.23 978.11 153.25 1082.3 211.86 1169.78 273.05 1225.3 326.32 1233.19 369.28 1191.99 411.92 1106.26 444.26 994.61 465.39Q994.55 465.4 994.55 465.4" opacity="0.40"></path><path d="M960.54 279.8C865.09 298.58 792.23 307.89 753.6 309.25 754.18 311.79 789.39 308.96 848.47 304.36 924.32 305.71 998.9 311.65 1060.62 327.57 1107.75 356.84 1130.6 402.26 1130.19 465.66 1110.45 540.95 1074.08 627.7 1028.11 716.93 973.23 794.33 917.49 852.09 865.71 877.62 812.63 866.1 766.69 815.64 729.54 732.62 692.66 636.85 664.41 542.82 645.63 472.35 626.85 445.08 618.43 463.93 619.9 520.86 621.64 605.87 633.42 696.64 653.96 775.03 673.2 833.12 698.01 857.91 723.95 849.48 740.98 812.07 750.39 752.2 745.52 680.74 721.32 600.97 676.21 524.59 609.52 457.39 528.25 395.81 436.84 346.43 347.22 308.15 274.38 275.71 228.47 250.41 220.65 229.37 252.03 210.19 321.09 191.82 416.54 173.04 516.41 154.27 601.27 135.96 656.59 119.74 674.77 105.36 656.51 96.5 609.99 96.4 541.3 102.14 467.53 120.59 401.16 153.23 344.7 191.49 309.91 240.91 297.73 296.07 304.38 342.92 329.4 380.52 366.44 398.39 413.86 387.26 464.67 345.63 513.6 273.78 564.98 181.63 610.42 80.17 647.64 -12.07 684.92 -76.26 713.51 -98.91 732.29 -71.64 751.07 -1.17 759.15 96.65 757.29 199.67 755.49 289.93 744.22 351.08 725.38 376.36 708.99 364.6 689.09 323.68 670.61 265.83 662.5 196.15 664.44 131.66 682.4 80.98 719.18 42.19 776.22 23.73 852.23 23.41 938.15 36.42 1028.76 61.41 1111.22 92.6 1171.51 129.74 1200.47 166.74 1189.55 199.6 1141.5 233.66 1060.46 261.01 960.6 279.79Q960.54 279.8 960.54 279.8" opacity="0.94"></path><path d="M926.6 175.99C773.85 208.85 715.68 237.16 761.7 276.09 882.29 334.5 999.85 432.12 1065.78 570.33 1083.74 707.96 1047.5 817.85 989.98 834.07 917.23 745.97 856.19 581.11 823.33 438.34 790.47 422.91 788.9 530.01 804.69 675.26 805.27 793.33 790.23 816.7 729.2 759.43 620.2 648.08 467.78 527.25 323.11 431.2 253 340.68 297.85 279.51 450.6 246.65 616.35 213.79 704.36 212.35 686.84 245.92 583.01 285.02 464.17 354.57 385.24 422.85 346.81 437.05 364.6 378.82 410.17 236.67 472.75 67.33 529.25 -53.08 562.11 -37.65 594.97 105.11 601.08 283.29 595.46 395.48 606.83 403.34 640.32 328.31 721.82 233.75 843.82 138.61 997.52 92.27 1125.44 90.81 1167.05 108.82 1092.35 143.13 926.6 175.99Q926.6 175.99 926.6 175.99" opacity="0.43"></path><path d="M892.55 224.48C757.03 252.65 685.27 301.74 691.58 373.96 765.97 453.17 862.9 559.37 941.94 674.28 1004.51 761.98 1025.3 804.35 1015.24 767.25 991.67 665.45 959.45 521.82 931.28 404.38 903.12 381.89 881.67 453.44 856.43 569.4 817.67 692.07 752.93 762.67 653.45 771.13 537.49 732.13 410.68 661.41 315.64 590.1 288.69 511.45 349.03 452.77 484.55 424.61 677.47 398.94 647.33 467.17 523 482.63 450.84 437.25 417.52 336.77 417.28 193.47 429.92 56.86 456.06 -26.1 484.23 -3.61 512.4 113.81 539.91 268.87 576.08 391.31 625.13 449.06 702.4 436.56 811.47 385.77 928.86 307.78 1046.46 245.54 1120.44 215.14 1121.72 191.73 1037.84 196.31 892.61 224.47Q892.55 224.48 892.55 224.48" opacity="0.49"></path><path d="M858.55 392.31C742.2 415.78 665.48 465.12 641.85 533.28 670.14 598.35 728.55 671.78 790.44 732.67 857.73 762.51 902.75 749.1 921.12 680.97 933.47 581.38 926.1 463.6 902.63 370.38 879.15 343.93 841.81 384.47 788.78 465.58 729.73 569.73 648.08 654.94 550.03 703.27 457.38 724.87 374.07 713.05 328.57 684.44 334.99 645.77 402.2 609.24 518.55 585.77 641.74 562.3 735.81 554.1 780.35 552.1 772.91 540.03 729.26 515.22 674.67 462.86 608.95 383.76 560.86 273.66 538.21 152.3 520.01 53.99 523.58 3.93 547.05 30.38 570.51 123.6 611.66 250.9 670.53 367.68 733.85 453.02 818.58 491.33 915.06 492.25 1000.42 462.13 1068.98 425.33 1093.63 400.94 1066.31 373.45 981.77 368.83 858.61 392.3Q858.55 392.31 858.55 392.31" opacity="0.19"></path><path d="M824.61 565.36C729.13 584.14 655.7 616.05 614.37 653.49 605.93 685 623.01 710.35 651.93 716.58 694.07 702.12 730.01 656.81 750.52 581.21 771.38 496.49 773.82 406.85 755.05 336.37 736.27 309.07 698.05 324.96 644.64 371.65 591.58 443.42 526.34 515.18 459.59 571.26 406.07 620.29 369.07 646.13 363.74 651.59 391.31 651.19 457.13 639.38 552.61 620.6 652.47 601.82 737.51 577.85 793.94 545.71 819.51 507.71 817.48 452.57 799.56 378.92 765.9 298.23 734.47 206.55 715.7 121.02 695.38 60.57 692.74 37.07 711.52 64.37 730.29 134.85 768.72 232.1 821.58 330.58 872.89 419.95 933.62 485.17 991.9 524.25 1034.43 542.62 1056.37 546.58 1044.57 547.61 1001.9 542.72 924.47 546.58 824.61 565.36Q824.61 565.36 824.61 565.36" opacity="0.27"></path><path d="M790.55 625.96C655.03 654.13 578.84 664.4 562.92 623.25 588.86 550.48 608.38 419.82 580.21 302.38 552.04 279.89 481.53 340 418.67 412.92 397.67 498.22 451.03 533.58 586.55 505.42 731.81 477.25 830.19 390.89 865.61 268.67 857.94 158.83 847.56 75.89 875.73 98.38 903.89 215.82 965.27 369.32 1009.86 479 1011.36 557.07 935.81 597.79 790.55 625.96Q790.55 625.96 790.55 625.96" opacity="0.51"></path><path d="M756.61 532.88C588.83 570.44 523.99 437.25 486.44 268.37 448.88 262.87 452.83 356.09 620.61 318.53 805.08 280.98 900.15 126.87 937.71 132.37 975.26 301.25 941.08 495.33 756.61 532.88Q756.61 532.88 756.61 532.88" opacity="0.62"></path></g></svg>